<svg width="28" height="25" viewBox="0 0 28 25" fill="none" xmlns="http://www.w3.org/2000/svg">
<path fill-rule="evenodd" clip-rule="evenodd" d="M9.54328 5.6422C9.81635 3.20276 8.0869 0.99998 5.64746 0.726908C3.20802 0.435631 1.00524 2.18329 0.732167 4.62273C0.404481 7.40806 0.859599 10.7395 1.44215 14.162C3.06238 14.6536 4.62799 15.3636 6.08437 16.201C7.64998 12.5054 9.17918 8.84624 9.54328 5.6422ZM26.674 16.3466C25.7091 14.0892 23.0876 13.0697 20.8302 14.0346C17.8629 15.3271 14.7863 17.8576 11.6914 20.4609C12.8566 21.6078 13.9488 22.9003 14.8773 24.3021C18.3908 23.8652 21.7587 23.3372 24.362 22.2085C26.6194 21.2073 27.657 18.5858 26.674 16.3466ZM19.1918 4.44068C17.2257 2.9843 14.4404 3.38481 12.984 5.35092C10.763 8.33651 9.27021 12.7967 7.64998 17.1476C8.19613 17.5117 8.70586 17.8758 9.19739 18.2581C9.56148 18.5494 9.94379 18.8589 10.3261 19.1683C14.0399 16.3648 17.8993 13.6341 20.1203 10.6485C21.5766 8.6824 21.1579 5.89707 19.1918 4.44068Z" fill="white"/>
</svg>
