<svg width="18" height="18" viewBox="0 0 18 18" fill="none" xmlns="http://www.w3.org/2000/svg">
<path d="M17.8438 8.67818C17.8438 9.05401 17.6996 9.41731 17.4302 9.68039C17.167 9.94973 16.8036 10.1001 16.4276 10.1001H10.763V15.7626C10.763 16.1384 10.6126 16.5017 10.3432 16.7648C10.08 17.0278 9.72285 17.1782 9.34688 17.1782C8.97091 17.1782 8.60748 17.0278 8.3443 16.7648C8.07486 16.5017 7.92447 16.1384 7.92447 15.7626V10.1001H2.25989C1.88393 10.1001 1.52049 9.94973 1.25731 9.68039C0.994137 9.41731 0.84375 9.05401 0.84375 8.67818C0.84375 8.30235 0.994137 7.94531 1.25731 7.67597C1.52049 7.41289 1.88393 7.26255 2.25989 7.26255H7.92447V1.60006C7.92447 1.22423 8.07486 0.860933 8.3443 0.597853C8.60748 0.328508 8.97091 0.178177 9.34688 0.178177C9.72285 0.178177 10.08 0.328508 10.3432 0.597853C10.6126 0.860933 10.763 1.22423 10.763 1.60006V7.26255H16.4276C16.8036 7.26255 17.167 7.41289 17.4302 7.67597C17.6996 7.94531 17.8438 8.30235 17.8438 8.67818Z" fill="white"/>
</svg>
